PathFileType	4	(X/Y/Z)	jw_ngait_og1.trc	
DataRate	CameraRate	NumFrames	NumMarkers	Units	OrigDataRate	OrigDataStartFrame	OrigNumFrames	
120.00	120.00	4	56	mm	120.00	237	327	
Frame#	Time	Sternum			Neck			RShoulder			LShoulder			Xiphoid			Thoracic			RAsis			LAsis			RPsis			LPsis			Lumbar			RElbow			RWrist			RRadius			RUlna			LElbow			LWrist			LUlna			LRadius			LThighSuperior			LThighInferior			LThighLateral			LPatella			LShankSuperior			LShankInferior			LShankLateral			RThighSuperior			RThighInferior			RThighLateral			RPatella			RShankSuperior			RShankInferior			RShankLateral			RHeel			RToe			RMidfootMedial			RMidfootLateral			RHindfoot			RMidfootSuperior			RToeMedial			RToeLateral			LHeel			LToe			LMidfootMedial			LMidfootLateral			LHindfoot			LMidfootSuperior			LToeMedial			LToeLateral			LShoulderCenter			Oglobal			RShoulderCenter			Sacral			Xglobal			Yglobal			Zglobal			
		X1	Y1	Z1	X2	Y2	Z2	X3	Y3	Z3	X4	Y4	Z4	X5	Y5	Z5	X6	Y6	Z6	X7	Y7	Z7	X8	Y8	Z8	X9	Y9	Z9	X10	Y10	Z10	X11	Y11	Z11	X12	Y12	Z12	X13	Y13	Z13	X14	Y14	Z14	X15	Y15	Z15	X16	Y16	Z16	X17	Y17	Z17	X18	Y18	Z18	X19	Y19	Z19	X20	Y20	Z20	X21	Y21	Z21	X22	Y22	Z22	X23	Y23	Z23	X24	Y24	Z24	X25	Y25	Z25	X26	Y26	Z26	X27	Y27	Z27	X28	Y28	Z28	X29	Y29	Z29	X30	Y30	Z30	X31	Y31	Z31	X32	Y32	Z32	X33	Y33	Z33	X34	Y34	Z34	X35	Y35	Z35	X36	Y36	Z36	X37	Y37	Z37	X38	Y38	Z38	X39	Y39	Z39	X40	Y40	Z40	X41	Y41	Z41	X42	Y42	Z42	X43	Y43	Z43	X44	Y44	Z44	X45	Y45	Z45	X46	Y46	Z46	X47	Y47	Z47	X48	Y48	Z48	X49	Y49	Z49	X50	Y50	Z50	X51	Y51	Z51	X52	Y52	Z52	X53	Y53	Z53	X54	Y54	Z54	X55	Y55	Z55	X56	Y56	Z56	

123	1.017	398.10941	162.46756	1345.59644	527.07281	162.38078	1464.41931	475.86530	340.48102	1405.11438	473.16132	-24.81205	1405.94751	404.09702	156.32716	1229.21863	623.49139	150.62833	1275.36035	420.24600	290.77441	1007.37598	436.18085	16.82504	988.78174	640.28491	181.16730	988.46588	641.96790	121.37220	984.87146	635.11920	155.25362	1056.39111	567.44635	426.96207	1082.46460	487.32077	429.86963	827.50079	466.57657	396.51532	834.17877	534.36310	421.81186	827.12146	526.40570	-97.33370	1080.22437	451.59958	-94.65906	815.86829	502.22318	-93.26046	812.69110	441.13315	-57.97460	839.78583	444.96744	-22.88142	814.39044	340.05994	2.49269	586.05554	326.21127	30.76150	709.16815	295.30905	57.05996	493.20770	397.02917	9.82855	458.33951	590.17188	35.45479	290.44986	475.09552	84.91951	358.14813	465.60132	322.99936	810.33679	419.18726	269.62604	577.74811	383.01187	251.32079	675.25830	386.85333	220.29231	514.70117	488.85193	287.71286	388.70535	476.68054	235.38548	156.95961	435.89627	197.53687	259.31631	570.88434	192.68062	49.00260	273.38693	237.44351	44.79966	350.26282	172.76099	36.07264	379.38184	283.75726	41.85242	459.11118	272.91614	23.38832	399.72522	215.52840	107.27949	310.09930	189.30144	36.23450	319.24152	277.07019	41.48299	749.16675	66.22641	265.97729	534.42065	71.67523	56.90383	612.69781	127.09969	109.67319	616.82745	2.55938	112.49317	697.66156	10.24661	172.97249	585.76410	65.77015	189.85275	573.41864	108.71444	80.92522	578.03754	20.50609	83.32528	499.03958	-13.88647	1365.91980	0.00000	0.00000	0.00000	499.82080	338.12506	1365.80542	641.12640	151.26974	986.66870	200.00000	0.00000	0.00000	0.00000	200.00000	0.00000	0.00000	0.00000	200.00000 
124	1.025	387.66266	161.72627	1345.69226	516.23859	162.33554	1465.05493	464.05038	340.02127	1405.78772	463.41034	-25.05603	1406.26990	393.91605	155.70834	1229.52332	613.07306	151.24236	1276.07324	411.58862	290.43027	1007.17212	427.03537	17.04180	989.33344	630.46155	181.81664	989.31580	632.29358	121.95993	985.63464	626.07892	154.95982	1057.06091	555.62512	427.93866	1083.52051	475.29016	430.96490	828.64795	454.72296	397.57520	835.12744	522.65631	423.28296	828.17468	519.22589	-96.84858	1080.77039	446.45679	-93.43258	815.97595	497.06921	-92.01106	812.78015	435.95477	-57.23402	839.64496	433.12457	-22.34941	816.32007	323.13187	3.54319	590.38257	312.39105	32.58511	713.41559	276.59799	57.80950	498.51157	376.75635	10.83766	460.82370	564.66174	35.96275	286.70239	451.86636	86.01153	357.22699	457.75299	323.40781	810.91626	414.24677	269.69916	577.29407	376.99939	251.62267	674.26770	383.34586	220.22945	513.62018	486.29776	287.65778	388.99197	475.74847	235.15836	157.20390	434.24097	197.55823	258.93823	571.35956	193.37338	49.42469	273.27914	237.49832	44.62878	350.89188	172.36032	35.63065	379.44135	283.50208	41.45568	458.88110	273.11404	23.43652	399.52112	215.45792	107.12003	309.84970	189.25232	35.92000	319.19614	277.10544	41.38822	723.36505	68.24519	253.50037	493.24728	67.99621	60.94458	576.11084	123.86418	105.23366	581.20850	-0.51859	111.41728	666.18536	9.04074	165.72386	555.29248	64.83331	188.90399	534.72821	105.22896	79.91422	540.33221	17.10573	83.91281	489.51196	-14.07358	1366.23035	0.00000	0.00000	0.00000	488.30215	337.93668	1366.44690	631.37756	151.88828	987.47522	200.00000	0.00000	0.00000	0.00000	200.00000	0.00000	0.00000	0.00000	200.00000 
125	1.033	377.12674	161.03642	1345.82971	505.23672	162.11526	1465.51501	452.51007	339.65219	1406.45959	453.49310	-25.42218	1406.38330	383.48557	155.13878	1229.74500	602.71454	151.93343	1276.65320	401.75702	290.68320	1007.34955	417.82648	17.31532	989.81335	620.78601	182.48488	990.00824	622.82758	122.57433	986.29047	616.45953	155.73203	1057.72412	543.72906	428.76315	1084.48462	463.28561	432.01730	829.80548	442.39789	398.52731	836.07208	510.79745	424.50854	829.13208	512.11633	-96.19735	1081.17871	441.32407	-92.42425	815.84528	492.25467	-90.80595	812.98871	430.59256	-56.51371	839.45483	422.13181	-21.41687	818.02020	307.11725	4.34582	594.89716	298.78369	33.76839	717.88965	258.11520	58.74097	504.36871	357.21985	11.32600	463.68097	538.65057	36.22702	282.60690	428.19614	86.37017	356.41394	449.79636	323.64563	811.38605	409.77145	269.68091	576.77051	371.11386	251.10561	673.12671	378.91852	220.53139	513.11346	483.66299	287.36060	389.05386	475.05835	235.14764	157.26509	431.97174	197.30930	258.91431	571.52094	193.53708	49.71292	273.21561	237.56592	44.41755	351.12875	172.17712	35.26060	379.48724	283.36453	41.14720	458.85629	273.09302	23.43691	399.25574	215.39369	106.95953	309.72284	189.21085	35.82272	319.09534	277.03900	41.33859	696.42920	70.56258	240.10507	453.70096	63.65665	63.63833	539.14697	120.52950	100.36995	545.59143	-3.55676	110.18650	634.08112	8.21454	158.34601	524.56512	64.14555	187.14323	495.94861	101.58265	79.05253	502.85675	13.50876	84.59922	479.69247	-14.34034	1366.41943	0.00000	0.00000	0.00000	476.91556	337.66031	1367.16895	621.80676	152.52960	988.14935	200.00000	0.00000	0.00000	0.00000	200.00000	0.00000	0.00000	0.00000	200.00000 
126	1.042	366.75421	160.17325	1345.89514	494.41772	161.91484	1465.92908	441.05530	339.26410	1406.94128	443.90793	-25.77674	1406.44666	373.20129	154.55536	1229.86792	592.49811	152.56447	1277.24573	391.42719	290.82520	1007.75256	408.64124	17.56388	990.13690	610.94446	182.93715	990.82996	613.16302	123.00496	986.93073	606.57983	156.74399	1058.48328	531.94452	429.62009	1085.15393	450.93198	433.01840	830.64490	431.25354	399.09296	836.67853	498.49127	425.70352	829.80475	505.42752	-95.45627	1081.44312	436.11557	-91.67078	816.00653	486.68665	-89.56210	813.04163	424.74188	-55.80251	839.61078	410.59384	-20.97722	820.06073	291.21713	5.26646	599.10223	285.53775	34.80072	722.04443	239.86984	60.46320	509.03894	338.60330	11.85094	466.40747	512.91498	36.74484	277.94455	404.70428	86.38898	355.55103	438.60394	322.33661	810.03925	405.18326	269.66052	576.05768	365.19095	251.44720	671.80164	374.78467	220.76700	512.67377	481.22318	287.19553	389.15039	474.46344	235.09622	157.28157	431.01175	197.05986	259.12881	571.33197	193.44084	49.83005	273.21072	237.58751	44.22264	350.94604	172.35098	34.89410	379.41077	283.49341	41.10810	458.90649	273.17142	23.49041	399.03378	215.33388	106.77419	309.63663	189.15898	35.69022	319.10855	277.07761	41.22639	668.18604	72.49687	226.14516	414.85178	58.89629	65.88905	501.58304	118.27639	96.11447	510.25684	-5.54575	107.43430	601.94006	8.00040	149.58566	493.54001	63.16751	184.56371	457.04434	97.81997	78.15468	465.45013	9.89988	85.15500	470.15131	-14.70034	1366.60620	0.00000	0.00000	0.00000	465.56949	337.28036	1367.75317	612.05371	152.97105	988.88037	200.00000	0.00000	0.00000	0.00000	200.00000	0.00000	0.00000	0.00000	200.00000 
